<?xml version="1.0" encoding="UTF-8" standalone="no"?>
<svg
   data-name="Layer 1"
   width="647.63626"
   height="632.17383"
   viewBox="0 0 647.63626 632.17383"
   version="1.1"
   id="svg22"
   sodipodi:docname="no_records.svg"
   inkscape:version="1.2 (dc2aedaf03, 2022-05-15)"
   xmlns:inkscape="http://www.inkscape.org/namespaces/inkscape"
   xmlns:sodipodi="http://sodipodi.sourceforge.net/DTD/sodipodi-0.dtd"
   xmlns="http://www.w3.org/2000/svg"
   xmlns:svg="http://www.w3.org/2000/svg">
  <defs
     id="defs26" />
  <sodipodi:namedview
     id="namedview24"
     pagecolor="#ffffff"
     bordercolor="#999999"
     borderopacity="1"
     inkscape:showpageshadow="0"
     inkscape:pageopacity="0"
     inkscape:pagecheckerboard="0"
     inkscape:deskcolor="#d1d1d1"
     showgrid="false"
     inkscape:zoom="1.2718021"
     inkscape:cx="323.94977"
     inkscape:cy="317.26634"
     inkscape:window-width="1920"
     inkscape:window-height="991"
     inkscape:window-x="-9"
     inkscape:window-y="-9"
     inkscape:window-maximized="1"
     inkscape:current-layer="svg22" />
  <path
     d="M687.3279,276.08691H512.81813a15.01828,15.01828,0,0,0-15,15v387.85l-2,.61005-42.81006,13.11a8.00676,8.00676,0,0,1-9.98974-5.31L315.678,271.39691a8.00313,8.00313,0,0,1,5.31006-9.99l65.97022-20.2,191.25-58.54,65.96972-20.2a7.98927,7.98927,0,0,1,9.99024,5.3l32.5498,106.32Z"
     transform="translate(-276.18187 -133.91309)"
     fill="#f2f2f2"
     id="path2" />
  <path
     d="M725.408,274.08691l-39.23-128.14a16.99368,16.99368,0,0,0-21.23-11.28l-92.75,28.39L380.95827,221.60693l-92.75,28.4a17.0152,17.0152,0,0,0-11.28028,21.23l134.08008,437.93a17.02661,17.02661,0,0,0,16.26026,12.03,16.78926,16.78926,0,0,0,4.96972-.75l63.58008-19.46,2-.62v-2.09l-2,.61-64.16992,19.65a15.01489,15.01489,0,0,1-18.73-9.95l-134.06983-437.94a14.97935,14.97935,0,0,1,9.94971-18.73l92.75-28.4,191.24024-58.54,92.75-28.4a15.15551,15.15551,0,0,1,4.40966-.66,15.01461,15.01461,0,0,1,14.32032,10.61l39.0498,127.56.62012,2h2.08008Z"
     transform="translate(-276.18187 -133.91309)"
     fill="#3f3d56"
     id="path4" />
  <path
     d="M398.86279,261.73389a9.0157,9.0157,0,0,1-8.61133-6.3667l-12.88037-42.07178a8.99884,8.99884,0,0,1,5.9712-11.24023l175.939-53.86377a9.00867,9.00867,0,0,1,11.24072,5.9707l12.88037,42.07227a9.01029,9.01029,0,0,1-5.9707,11.24072L401.49219,261.33887A8.976,8.976,0,0,1,398.86279,261.73389Z"
     transform="translate(-276.18187 -133.91309)"
     fill="#6c63ff"
     id="path6"
     style="fill:#b2b2b2;fill-opacity:1" />
  <circle
     cx="190.15351"
     cy="24.95465"
     r="20"
     fill="#6c63ff"
     id="circle8"
     style="fill:none;fill-opacity:1;stroke:#acacac;stroke-opacity:1;stroke-width:5.6;stroke-dasharray:none" />
  <path
     d="M878.81836,716.08691h-338a8.50981,8.50981,0,0,1-8.5-8.5v-405a8.50951,8.50951,0,0,1,8.5-8.5h338a8.50982,8.50982,0,0,1,8.5,8.5v405A8.51013,8.51013,0,0,1,878.81836,716.08691Z"
     transform="translate(-276.18187 -133.91309)"
     fill="#e6e6e6"
     id="path12" />
  <path
     d="M723.31813,274.08691h-210.5a17.02411,17.02411,0,0,0-17,17v407.8l2-.61v-407.19a15.01828,15.01828,0,0,1,15-15H723.93825Zm183.5,0h-394a17.02411,17.02411,0,0,0-17,17v458a17.0241,17.0241,0,0,0,17,17h394a17.0241,17.0241,0,0,0,17-17v-458A17.02411,17.02411,0,0,0,906.81813,274.08691Zm15,475a15.01828,15.01828,0,0,1-15,15h-394a15.01828,15.01828,0,0,1-15-15v-458a15.01828,15.01828,0,0,1,15-15h394a15.01828,15.01828,0,0,1,15,15Z"
     transform="translate(-276.18187 -133.91309)"
     fill="#3f3d56"
     id="path14" />
  <path
     d="M801.81836,318.08691h-184a9.01015,9.01015,0,0,1-9-9v-44a9.01016,9.01016,0,0,1,9-9h184a9.01016,9.01016,0,0,1,9,9v44A9.01015,9.01015,0,0,1,801.81836,318.08691Z"
     transform="translate(-276.18187 -133.91309)"
     fill="#6c63ff"
     id="path16"
     style="fill:#b2b2b2;fill-opacity:1" />
  <circle
     cx="433.63626"
     cy="105.17383"
     r="20"
     fill="#6c63ff"
     id="circle18"
     style="fill:none;fill-opacity:1;stroke:#acacac;stroke-opacity:1;stroke-width:7;stroke-dasharray:none" />
</svg>
